<svg width="480" height="373" viewBox="0 0 480 373" fill="none" xmlns="http://www.w3.org/2000/svg">
<g opacity="0.15" clip-path="url(#clip0_4_69)">
<circle cx="-50.5" cy="-157.498" r="528" stroke="white" stroke-width="5"/>
<path d="M-51.0039 -602.403C194.992 -602.403 394.406 -403.21 394.406 -157.499C394.406 88.2115 194.992 287.404 -51.0039 287.404C-297 287.404 -496.414 88.2115 -496.414 -157.499C-496.414 -403.21 -297 -602.403 -51.0039 -602.403Z" stroke="white" stroke-width="5"/>
<path d="M-51.0098 -531.464C155.244 -531.464 322.451 -364.036 322.451 -157.497C322.451 49.0429 155.244 216.47 -51.0098 216.47C-257.263 216.47 -424.471 49.0429 -424.471 -157.497C-424.471 -364.036 -257.263 -531.464 -51.0098 -531.464Z" stroke="white" stroke-width="5"/>
<circle cx="-50.5001" cy="-156.486" r="317.219" stroke="white" stroke-width="5"/>
</g>
<defs>
<clipPath id="clip0_4_69">
<rect width="1061" height="1061" fill="white" transform="translate(-581 -687.998)"/>
</clipPath>
</defs>
</svg>
